<svg width="45" height="45" viewBox="0 0 45 45" fill="none" xmlns="http://www.w3.org/2000/svg">
<rect x="1" y="1" width="43" height="43" rx="19" stroke="black" stroke-width="2"/>
<path fill-rule="evenodd" clip-rule="evenodd" d="M30 21.739V28.4646C30 29.5692 29.1046 30.4646 28 30.4646H25.4649C25.8052 29.8763 26 29.1933 26 28.4648V26.7346C26 25.5674 25.4902 24.4584 24.6042 23.6985C23.1059 22.4133 20.8941 22.4133 19.3958 23.6985C18.5098 24.4584 18 25.5674 18 26.7346V28.4648C18 29.1933 18.1948 29.8763 18.5351 30.4646H16C14.8954 30.4646 14 29.5692 14 28.4646V21.739C14 21.1932 14.2231 20.671 14.6176 20.2937L20.6176 14.5546C21.3908 13.815 22.6092 13.815 23.3824 14.5546L29.3824 20.2937C29.7769 20.671 30 21.1932 30 21.739ZM21.9773 30.4646C20.8832 30.4525 20 29.5618 20 28.4648V26.7346C20 26.151 20.2549 25.5965 20.6979 25.2166C21.447 24.574 22.553 24.574 23.3021 25.2166C23.7451 25.5965 24 26.151 24 26.7346V28.4648C24 29.5618 23.1168 30.4525 22.0227 30.4646H21.9773ZM21.9679 32.4646H16C13.7909 32.4646 12 30.6738 12 28.4646V21.739C12 20.6473 12.4462 19.603 13.2351 18.8484L19.2351 13.1093C20.7816 11.6301 23.2184 11.6301 24.7649 13.1093L30.7649 18.8484C31.5538 19.603 32 20.6473 32 21.739V28.4646C32 30.6738 30.2091 32.4646 28 32.4646H22.0321C22.0214 32.4647 22.0107 32.4648 22 32.4648C21.9893 32.4648 21.9786 32.4647 21.9679 32.4646Z" fill="black"/>
</svg>
